<?xml version="1.0" encoding="UTF-8"?>
<svg width="24px" height="24px" viewBox="0 0 24 24" version="1.1" xmlns="http://www.w3.org/2000/svg" xmlns:xlink="http://www.w3.org/1999/xlink">
    <title>Pokeball Icon</title>
    <g id="Page-1" stroke="none" stroke-width="1" fill="none" fill-rule="evenodd">
        <g id="Pokeball">
            <!-- Red top half -->
            <path d="M12,0 C18.627417,0 24,5.372583 24,12 L0,12 C0,5.372583 5.372583,0 12,0 Z" fill="#FF0000"/>
            <!-- White bottom half -->
            <path d="M12,24 C5.372583,24 0,18.627417 0,12 L24,12 C24,18.627417 18.627417,24 12,24 Z" fill="#FFFFFF"/>
            <!-- Black outline -->
            <path d="M12,0 C18.627417,0 24,5.372583 24,12 C24,18.627417 18.627417,24 12,24 C5.372583,24 0,18.627417 0,12 C0,5.372583 5.372583,0 12,0 Z M12,1 C5.92486775,1 1,5.92486775 1,12 C1,18.0751322 5.92486775,23 12,23 C18.0751322,23 23,18.0751322 23,12 C23,5.92486775 18.0751322,1 12,1 Z" fill="#000000" fill-rule="nonzero"/>
            <!-- Center circle -->
            <circle cx="12" cy="12" r="4" fill="#000000"/>
            <circle cx="12" cy="12" r="2" fill="#FFFFFF"/>
            <!-- Horizontal line -->
            <path d="M0,12 L24,12 L24,13 L0,13 Z" fill="#000000" fill-rule="nonzero"/>
        </g>
    </g>
</svg>
