<?xml version="1.0" standalone="no"?>
<!DOCTYPE svg PUBLIC "-//W3C//DTD SVG 20010904//EN"
 "http://www.w3.org/TR/2001/REC-SVG-20010904/DTD/svg10.dtd">
<svg version="1.0" xmlns="http://www.w3.org/2000/svg"
 width="297.000000pt" height="282.000000pt" viewBox="0 0 297.000000 282.000000"
 preserveAspectRatio="xMidYMid meet">

<g transform="translate(0.000000,282.000000) scale(0.100000,-0.100000)"
fill="#000000" stroke="none">
<path d="M1455 2778 c-38 -22 -44 -41 -45 -132 0 -82 -2 -91 -25 -112 -20 -19
-25 -33 -25 -73 l0 -50 -47 -7 c-119 -17 -288 -86 -404 -165 l-56 -38 -39 40
c-30 31 -44 39 -62 34 -19 -5 -37 7 -94 60 -62 59 -73 66 -105 63 -46 -4 -79
-43 -69 -84 4 -15 35 -56 69 -91 46 -48 61 -71 59 -88 -2 -16 9 -37 34 -64
l36 -41 -40 -63 c-65 -100 -111 -206 -140 -326 l-27 -111 -52 0 c-39 0 -55 -5
-65 -19 -11 -15 -30 -19 -117 -23 -93 -3 -105 -6 -122 -27 -27 -34 -24 -75 7
-100 23 -18 41 -21 117 -21 83 0 91 -2 113 -25 19 -20 33 -25 74 -25 41 0 50
-3 50 -17 0 -34 39 -173 69 -247 16 -41 50 -107 75 -148 l45 -73 -34 -28 c-27
-22 -35 -36 -35 -62 0 -28 -10 -42 -59 -87 -69 -63 -85 -89 -76 -129 8 -34 31
-49 75 -49 26 0 45 13 98 64 57 54 71 63 94 59 21 -4 37 3 68 27 l40 32 38
-29 c112 -88 273 -160 412 -187 l65 -12 3 -40 c4 -63 11 -82 32 -89 18 -6 20
-15 20 -100 0 -51 3 -101 6 -110 10 -26 59 -46 87 -36 46 18 57 47 57 148 0
83 2 92 20 98 21 7 28 26 32 89 l3 40 65 12 c125 23 259 80 372 158 l66 44 33
-35 c28 -29 39 -34 65 -30 28 5 38 -2 95 -59 55 -55 68 -64 100 -64 45 0 69
25 69 71 0 29 -10 44 -66 99 -51 52 -64 70 -61 89 3 17 -5 35 -30 62 l-35 38
47 75 c57 92 112 219 131 306 8 36 17 75 19 88 5 19 12 22 51 22 35 0 51 6 70
25 23 23 33 25 110 25 96 0 138 15 148 54 8 33 -10 71 -41 85 -13 6 -63 11
-111 11 -76 0 -89 2 -100 20 -10 16 -23 20 -67 20 l-54 0 -6 38 c-24 141 -85
298 -158 407 l-47 69 37 38 c29 30 35 42 30 66 -5 25 2 36 59 93 55 54 64 68
64 99 0 41 -7 53 -38 69 -34 18 -61 5 -133 -66 -52 -51 -71 -64 -87 -59 -15 5
-31 -2 -60 -29 -22 -19 -42 -35 -45 -35 -3 0 -29 16 -58 36 -113 76 -275 142
-391 158 l-48 7 0 54 c0 47 -3 57 -25 71 -24 15 -25 21 -25 108 -1 94 -7 113
-47 134 -26 15 -33 15 -58 0z m53 -40 c8 -8 12 -45 12 -100 l0 -88 -35 0 -35
0 0 88 c0 85 8 112 35 112 6 0 16 -5 23 -12z m60 -275 l3 -43 -85 0 -86 0 0
38 c0 21 3 42 7 46 4 4 41 5 83 4 l75 -3 3 -42z m157 -111 c519 -144 829 -658
704 -1172 -28 -115 -113 -287 -190 -383 -35 -44 -99 -108 -144 -144 -84 -68
-246 -154 -328 -175 l-49 -13 -34 38 c-38 41 -43 57 -16 57 32 0 163 49 230
86 197 108 341 280 412 492 29 84 34 114 38 228 5 152 -11 255 -60 372 -178
427 -650 642 -1085 493 -280 -96 -487 -320 -565 -611 -28 -107 -31 -297 -5
-403 76 -308 306 -553 607 -643 33 -10 60 -23 60 -30 0 -12 -65 -74 -78 -74
-4 0 -32 9 -62 21 -244 92 -439 268 -549 494 -78 160 -96 239 -95 430 0 144 3
169 28 250 106 352 374 611 711 688 39 9 79 18 90 21 50 12 312 -3 380 -22z
m703 6 c21 -21 13 -39 -50 -104 l-61 -64 -24 22 c-13 12 -23 27 -23 33 0 16
115 125 132 125 8 0 19 -5 26 -12z m-1793 -58 l59 -60 -24 -25 -24 -26 -63 63
c-58 58 -73 84 -56 101 19 19 53 2 108 -53z m160 -90 l29 -31 -57 -56 -56 -57
-31 29 c-16 16 -30 33 -30 39 0 10 99 106 110 106 4 0 19 -14 35 -30z m900 6
c232 -63 454 -252 550 -470 50 -114 86 -311 70 -385 l-7 -31 -30 25 c-16 14
-55 32 -85 41 -108 31 -212 -2 -263 -83 -36 -57 -46 -103 -33 -158 9 -40 8
-44 -12 -53 -13 -6 -38 -24 -58 -41 l-35 -31 -9 62 -8 63 47 43 c61 56 102
139 95 196 -7 62 -61 241 -82 272 -15 24 -18 47 -16 154 1 101 -2 139 -19 200
-39 138 -82 175 -118 103 -31 -61 -46 -141 -46 -244 l0 -96 -60 4 c-80 7 -164
-10 -246 -48 -63 -29 -69 -30 -96 -16 -76 39 -200 69 -289 71 -156 2 -178 -17
-100 -89 57 -54 150 -103 245 -131 50 -15 74 -27 72 -36 -2 -7 -7 -45 -11 -85
-6 -66 -11 -78 -66 -158 -64 -93 -62 -92 -137 -61 l-36 15 35 135 c20 74 33
141 30 148 -3 8 -65 41 -139 72 -73 32 -136 61 -140 65 -11 10 44 130 92 201
122 181 313 309 530 355 84 18 293 13 375 -9z m564 -27 c28 -29 51 -57 51 -62
0 -13 -40 -57 -51 -57 -4 0 -33 25 -64 56 l-56 57 27 28 c15 16 31 29 34 29 4
0 30 -23 59 -51z m-510 -134 c12 -31 21 -58 21 -60 0 -6 -69 35 -75 45 -6 10
15 70 25 70 5 0 18 -25 29 -55z m-13 -87 c23 -18 45 -42 48 -53 9 -31 7 -136
-4 -180 -8 -35 -6 -45 15 -75 13 -19 35 -76 48 -125 22 -87 22 -91 5 -109 -27
-29 -33 -81 -14 -111 13 -19 14 -30 6 -45 -12 -22 -106 -100 -121 -100 -5 0
-9 -7 -9 -15 0 -8 6 -15 14 -15 30 0 35 -144 7 -205 -29 -63 -59 -86 -104 -78
-45 7 -46 17 -12 120 14 42 24 78 21 81 -14 13 -36 -12 -51 -60 -10 -29 -20
-57 -23 -62 -3 -5 -16 37 -30 93 -33 141 -59 149 -92 29 l-18 -63 -21 48 c-19
45 -44 67 -59 53 -3 -4 -1 -16 6 -26 23 -37 52 -125 52 -158 0 -47 -14 -68
-50 -76 -26 -5 -39 0 -71 26 -23 18 -54 54 -71 80 -31 48 -58 63 -58 32 0 -27
59 -103 113 -145 44 -35 55 -40 84 -34 33 6 33 5 27 -22 -9 -44 -34 -131 -44
-158 l-9 -23 -58 15 c-83 21 -172 64 -258 124 l-75 51 0 63 c0 35 9 92 21 130
l20 66 35 -20 c38 -23 64 -27 64 -11 0 5 -12 32 -27 59 -24 42 -26 52 -15 75
l12 26 40 -26 c57 -38 70 -22 37 47 l-24 52 42 61 c36 52 44 71 50 131 4 39
14 84 22 102 19 41 13 49 -39 56 -24 3 -66 14 -95 23 -45 15 -55 22 -73 60
-20 44 -26 84 -12 84 28 -1 146 -35 208 -61 l73 -31 75 37 c65 32 87 38 165
43 53 3 109 0 136 -7 56 -14 73 -7 48 21 -13 14 -19 40 -21 94 -4 74 3 144 15
144 3 0 25 -15 49 -32z m-788 -250 c6 -23 9 -44 7 -46 -6 -6 -105 68 -105 79
0 5 20 9 44 9 43 0 44 -1 54 -42z m-136 -140 c66 -29 122 -58 125 -64 2 -6
-12 -73 -31 -148 l-34 -138 41 -19 c23 -10 48 -19 55 -19 16 0 16 -6 -12 -88
-32 -93 -33 -94 -58 -81 -14 8 -19 18 -15 35 5 28 -16 44 -57 44 -51 0 -56 7
-56 85 0 73 0 73 -31 84 -18 6 -40 11 -50 11 -10 0 -23 9 -29 19 -24 45 -2
331 26 331 4 0 61 -24 126 -52z m-342 -169 l0 -80 -42 3 -43 3 -3 64 c-4 84
-1 91 48 91 l40 0 0 -81z m2108 69 c16 -16 16 -130 0 -146 -7 -7 -28 -12 -48
-12 l-36 0 1 80 0 79 30 4 c17 2 32 5 36 5 3 1 10 -3 17 -10z m-2238 -68 l0
-40 -74 0 c-94 0 -126 11 -126 44 0 32 8 34 113 35 l87 1 0 -40z m2483 8 c8
-12 7 -21 -2 -32 -10 -12 -33 -16 -102 -16 l-89 0 0 35 0 36 91 -3 c73 -2 94
-6 102 -20z m-938 -18 c9 -14 -15 -81 -26 -75 -5 4 -9 17 -9 30 0 45 20 70 35
45z m331 -51 c44 -21 84 -71 84 -106 0 -26 -42 -148 -69 -201 -33 -66 -110
-84 -156 -37 -49 48 -18 145 46 145 19 0 29 5 29 15 0 19 -68 21 -94 2 -10 -7
-26 -37 -36 -66 l-17 -52 -33 42 c-69 87 -44 210 52 258 57 28 137 28 194 0z
m-1487 -115 c2 -2 3 -37 2 -78 -2 -82 -6 -78 77 -91 38 -6 42 -10 42 -35 0
-21 7 -30 30 -40 26 -11 30 -17 26 -39 -3 -14 -8 -48 -12 -76 l-7 -49 -30 34
c-61 71 -126 182 -156 265 -40 110 -40 128 -3 119 15 -4 29 -8 31 -10z m351
-44 c0 -5 -2 -10 -4 -10 -3 0 -8 5 -11 10 -3 6 -1 10 4 10 6 0 11 -4 11 -10z
m-75 -120 c3 -5 1 -10 -4 -10 -6 0 -11 5 -11 10 0 6 2 10 4 10 3 0 8 -4 11
-10z m963 -36 c46 -62 62 -105 62 -165 0 -75 -20 -108 -98 -159 -72 -48 -219
-108 -274 -112 l-33 -3 -22 85 c-12 47 -22 98 -22 114 -1 28 0 28 44 22 56 -9
86 9 122 73 61 107 141 192 178 191 5 -1 25 -21 43 -46z m-438 -177 c46 -233
66 -299 109 -362 29 -43 29 -43 8 -49 -58 -14 -190 -17 -272 -7 -49 7 -92 14
-94 17 -3 2 7 17 21 32 50 53 77 133 128 372 30 141 49 215 55 208 2 -2 22
-96 45 -211z m620 88 c11 4 20 3 20 -2 0 -9 -91 -126 -95 -121 -1 2 -5 33 -8
70 l-6 66 35 -9 c19 -6 44 -7 54 -4z m-1400 -230 l54 -55 -24 -25 c-13 -14
-29 -25 -35 -25 -14 0 -105 90 -105 104 0 11 40 56 50 56 3 0 30 -25 60 -55z
m1544 7 l27 -29 -52 -51 c-29 -29 -58 -52 -64 -52 -6 0 -22 11 -35 25 l-24 25
54 55 c30 30 57 55 60 55 4 0 19 -13 34 -28z m-1676 -174 c-46 -42 -70 -57
-88 -55 -46 4 -36 35 31 103 l63 64 29 -27 28 -28 -63 -57z m1832 -46 c0 -14
-28 -42 -42 -42 -5 0 -39 28 -74 62 l-64 62 27 28 28 29 62 -64 c35 -36 63
-69 63 -75z m-880 -148 c0 -49 -8 -54 -85 -54 -77 0 -85 5 -85 54 l0 43 85 -1
85 0 0 -42z m-50 -183 c0 -69 -4 -92 -16 -102 -11 -9 -20 -10 -32 -2 -14 8
-18 29 -20 102 l-3 91 36 0 35 0 0 -89z"/>
<path d="M1740 1530 c-28 -28 -26 -66 5 -86 30 -20 63 -10 76 23 10 28 -1 57
-31 73 -25 13 -27 13 -50 -10z m38 -33 c2 -12 -3 -17 -17 -17 -15 0 -21 6 -21
21 0 25 33 22 38 -4z"/>
<path d="M1377 1492 c-26 -28 -21 -69 9 -89 24 -15 29 -15 53 -2 16 9 27 25
29 43 7 55 -56 87 -91 48z m73 -28 c0 -20 -30 -30 -40 -13 -11 17 7 40 26 32
8 -3 14 -12 14 -19z"/>
<path d="M1620 1415 c0 -8 7 -15 15 -15 8 0 15 7 15 15 0 8 -7 15 -15 15 -8 0
-15 -7 -15 -15z"/>
<path d="M1272 1364 c-29 -20 -30 -76 -2 -104 26 -26 81 -26 103 -2 57 63 -31
155 -101 106z m88 -43 c7 -14 5 -25 -8 -41 -23 -28 -58 -20 -75 17 -10 22 -8
28 12 44 26 21 53 13 71 -20z"/>
<path d="M1590 1368 c-14 -5 -35 -7 -47 -5 -23 4 -33 -16 -14 -28 5 -3 13 -20
16 -38 4 -17 14 -44 21 -59 29 -57 95 -24 135 67 11 24 24 47 29 50 22 14 7
20 -53 21 -34 1 -73 -3 -87 -8z m71 -28 c18 -10 18 -13 4 -39 -17 -33 -42 -61
-55 -61 -11 0 -40 53 -40 73 0 7 12 18 28 24 36 15 40 15 63 3z"/>
</g>
</svg>
